


Format                           : AVI
Format/Info                      : Audio Video Interleave
File size                        : 905 MiB
Duration                         : 1h 12mn
Overall bit rate                 : 1 755 Kbps
Writing application              : VirtualDubMod 1.5.10.2 (build 2540/release)
Writing library                  : VirtualDub build 32839/release

Video
ID                               : 0
Format                           : MPEG-4 Visual
Format profile                   : Advanced Simple@L5
Format settings, BVOP            : Yes
Format settings, QPel            : No
Format settings, GMC             : No warppoints
Format settings, Matrix          : Custom
Codec ID                         : XVID
Codec ID/Hint                    : XviD
Duration                         : 1h 12mn
Bit rate                         : 1 612 Kbps
Width                            : 720 pixels
Height                           : 400 pixels
Display aspect ratio             : 16:9
Frame rate                       : 25.000 fps
Color space                      : YUV
Chroma subsampling               : 4:2:0
Bit depth                        : 8 bits
Scan type                        : Progressive
Bits/(Pixel*Frame)               : 0.224
Stream size                      : 831 MiB (92%)
Writing library                  : XviD 1.2.1 (UTC 2008-12-04)

Audio
ID                               : 1
Format                           : MPEG Audio
Format version                   : Version 1
Format profile                   : Layer 3
Mode                             : Joint stereo
Mode extension                   : MS Stereo
Codec ID                         : 55
Codec ID/Hint                    : MP3
Duration                         : 1h 12mn
Bit rate mode                    : Variable
Bit rate                         : 128 Kbps
Channel(s)                       : 2 channels
Sampling rate                    : 48.0 KHz
Stream size                      : 67.2 MiB (7%)
Alignment                        : Aligned on interleaves
Interleave, duration             : 24 ms (0.60 video frame)
Interleave, preload duration     : 141 ms
Writing library                  : LAME3.90.
Encoding settings                : -m j -V 4 -q 2 -lowpass 17.6 --abr 128



 
http://www.quickflicksnow.com/movies/7398_merlin_and_arthur_the_lion_king_2010







In this full length animated feature the timeless story of Merlin and Arthur is recreated for a new generation. Merlin an old magician-bear, is teaching the young Arthur what he needs to become King. However, cynical and self-involved Arthur will need to respect Merlin's magic and wisdom before he will be ready to accept his destiny more
In this full length animated feature the timeless story of Merlin and Arthur is recreated for a new generation. Merlin an old magician-bear, is teaching the young Arthur what he needs to become King. However, cynical and self-involved Arthur will need to respect Merlin's magic and wisdom before he will be ready to accept his destiny hide







 
http://img98.imageshack.us/img98/2117/vlcsnap2011033105h12m08.png 
http://img717.imageshack.us/img717/8689/vlcsnap2011033105h12m22.png 
http://img194.imageshack.us/img194/8635/vlcsnap2011033105h12m17.png







Greetz to Imagine ,Flawl3ss,DiLLoN,BDK,NOiR,TOXiCiNK,THC,Ez,Rx,Boobyblue





